<svg xmlns="http://www.w3.org/2000/svg" xmlns:xlink="http://www.w3.org/1999/xlink"><symbol viewBox="0 0 792 792" id="login-password"><path d="M396 495c-13.662 0-24.75 11.088-24.75 24.75v99c0 13.662 11.088 24.75 24.75 24.75s24.75-11.088 24.75-24.75v-99c0-13.662-11.088-24.75-24.75-24.75zm198-98.555V198C594 88.654 505.346 0 396 0S198 88.654 198 198v198.445c-30.938 41.333-49.5 92.466-49.5 148.055C148.5 681.194 259.306 792 396 792s247.5-110.806 247.5-247.5c0-55.59-18.562-106.722-49.5-148.055zM247.5 198c0-82.02 66.48-148.5 148.5-148.5S544.5 115.98 544.5 198v148.847C503.093 315.687 451.786 297 396 297c-55.787 0-107.093 18.686-148.5 49.847V198zM396 742.5c-109.346 0-198-88.654-198-198s88.654-198 198-198c105.633 0 198 92.367 198 198 0 109.346-88.654 198-198 198z"/></symbol><symbol viewBox="0 0 792 792" id="login-user"><path d="M568.037 404.712c31.68-42.743 50.713-97.515 50.713-157.212C618.75 110.806 519.032 0 396 0S173.25 110.806 173.25 247.5c0 59.697 19.033 114.47 50.713 157.212C165.8 424.834 123.75 479.482 123.75 544.5v99c0 82.02 66.48 148.5 148.5 148.5h247.5c82.02 0 148.5-66.48 148.5-148.5v-99c0-65.02-42.05-119.666-100.213-139.788zM222.75 247.5c0-109.346 77.566-198 173.25-198s173.25 88.654 173.25 198-77.566 198-173.25 198-173.25-88.654-173.25-198zm396 383.625c0 61.504-54.4 111.375-121.498 111.375H294.748c-67.097 0-121.498-49.87-121.498-111.375v-74.25c0-52.618 39.922-96.45 93.456-108.108C303.188 477.774 347.736 495 396 495s92.812-17.226 129.294-46.233c53.534 11.657 93.456 55.49 93.456 108.108v74.25z"/></symbol></svg>